<?xml version="1.0" encoding="utf-8" ?>
<svg xmlns="http://www.w3.org/2000/svg" xmlns:xlink="http://www.w3.org/1999/xlink" width="24" height="18.8562" viewBox="0 0 24 18.8562">
	<defs>
		<clipPath id="clipPath8702700091">
			<path d="M0 0L24 0L24 22L0 22L0 0Z" fill-rule="nonzero" transform="matrix(1 0 0 1 0 0)"/>
		</clipPath>
	</defs>
	<g clip-path="url(#clipPath8702700091)">
		<path d="M3.6 7.85714C4.92375 7.85714 6 6.68266 6 5.23809C6 3.79353 4.92375 2.61905 3.6 2.61905C2.27625 2.61905 1.2 3.79353 1.2 5.23809C1.2 6.68266 2.27625 7.85714 3.6 7.85714ZM20.4 7.85714C21.7238 7.85714 22.8 6.68266 22.8 5.23809C22.8 3.79353 21.7238 2.61905 20.4 2.61905C19.0763 2.61905 18 3.79353 18 5.23809C18 6.68266 19.0763 7.85714 20.4 7.85714ZM21.6 9.16667L19.2 9.16667C18.54 9.16667 17.9438 9.45722 17.5088 9.92783C19.02 10.8322 20.0925 12.465 20.325 14.4048L22.8 14.4048C23.4638 14.4048 24 13.8196 24 13.0952L24 11.7857C24 10.3411 22.9237 9.16667 21.6 9.16667ZM12 9.16667C14.3212 9.16667 16.2 7.11644 16.2 4.58333C16.2 2.05022 14.3212 0 12 0C9.67875 0 7.8 2.05022 7.8 4.58333C7.8 7.11644 9.67875 9.16667 12 9.16667ZM14.88 10.4762L14.5688 10.4762C13.7888 10.8854 12.9225 11.131 12 11.131C11.0775 11.131 10.215 10.8854 9.43125 10.4762L9.12 10.4762C6.735 10.4762 4.8 12.5878 4.8 15.1905L4.8 16.369C4.8 17.4535 5.60625 18.3333 6.6 18.3333L17.4 18.3333C18.3938 18.3333 19.2 17.4535 19.2 16.369L19.2 15.1905C19.2 12.5878 17.265 10.4762 14.88 10.4762ZM6.49125 9.92783C6.05625 9.45722 5.46 9.16667 4.8 9.16667L2.4 9.16667C1.07625 9.16667 0 10.3411 0 11.7857L0 13.0952C0 13.8196 0.53625 14.4048 1.2 14.4048L3.67125 14.4048C3.9075 12.465 4.98 10.8322 6.49125 9.92783Z" fill-rule="nonzero" transform="matrix(1 0 0 1 0 0.39388)" fill="rgb(255, 255, 255)"/>
	</g>
</svg>
