<?xml version="1.0" encoding="utf-8" ?>
<svg xmlns="http://www.w3.org/2000/svg" xmlns:xlink="http://www.w3.org/1999/xlink" width="24" height="24" viewBox="0 0 24 24">
	<defs>
		<clipPath id="clipPath8013836000">
			<path d="M0 0L24 0L24 24L0 24L0 0Z" fill-rule="nonzero" transform="matrix(1 0 0 1 -0 -0)"/>
		</clipPath>
	</defs>
	<g clip-path="url(#clipPath8013836000)">
		<path d="M21 3.42858L21 5.57142C21 7.45983 16.2969 9 10.5 9C4.70311 9 0 7.45983 0 5.57142L0 3.42858C0 1.54017 4.70311 0 10.5 0C16.2969 0 21 1.54017 21 3.42858ZM21 8.25L21 13.0714C21 14.9598 16.2969 16.5 10.5 16.5C4.70311 16.5 0 14.9598 0 13.0714L0 8.25C2.25586 9.80358 6.38475 10.5268 10.5 10.5268C14.6152 10.5268 18.7441 9.80358 21 8.25ZM21 15.75L21 20.5714C21 22.4598 16.2969 24 10.5 24C4.70311 24 0 22.4598 0 20.5714L0 15.75C2.25586 17.3036 6.38475 18.0268 10.5 18.0268C14.6152 18.0268 18.7441 17.3036 21 15.75Z" fill-rule="nonzero" transform="matrix(1 0 0 1 1.5 0)" fill="rgb(255, 255, 255)"/>
	</g>
</svg>
