<?xml version="1.0" encoding="utf-8" ?>
<svg xmlns="http://www.w3.org/2000/svg" xmlns:xlink="http://www.w3.org/1999/xlink" width="48" height="48" viewBox="0 0 48 48">
	<defs>
		<clipPath id="clipPath0200406208">
			<path d="M0 0L48 0L48 48L0 48L0 0Z" fill-rule="nonzero" transform="matrix(1 0 0 1 -0 -0)"/>
		</clipPath>
	</defs>
	<g clip-path="url(#clipPath0200406208)">
		<path d="M5.25 45L2.25 45C1.62868 45 1.09835 44.7803 0.659009 44.341C0.21967 43.9016 0 43.3713 0 42.75L0 29.25C0 28.6287 0.21967 28.0984 0.659009 27.659C1.09835 27.2197 1.62868 27 2.25 27L5.25 27C5.87132 27 6.40165 27.2197 6.84099 27.659C7.28033 28.0983 7.5 28.6287 7.5 29.25L7.5 42.75C7.5 43.3713 7.28033 43.9016 6.84099 44.341C6.40165 44.7803 5.87132 45 5.25 45ZM26.25 45L23.25 45C22.6287 45 22.0983 44.7803 21.659 44.341C21.2197 43.9016 21 43.3713 21 42.75L21 20.25C21 19.6287 21.2197 19.0984 21.659 18.659C22.0983 18.2197 22.6287 18 23.25 18L26.25 18C26.8713 18 27.4016 18.2197 27.841 18.659C28.2803 19.0983 28.5 19.6287 28.5 20.25L28.5 42.75C28.5 43.3713 28.2803 43.9016 27.841 44.341C27.4016 44.7803 26.8713 45 26.25 45ZM36.75 45L33.75 45C33.1287 45 32.5983 44.7803 32.159 44.341C31.7197 43.9016 31.5 43.3713 31.5 42.75L31.5 9.75C31.5 9.12868 31.7197 8.59835 32.159 8.15901C32.5984 7.71967 33.1287 7.5 33.75 7.5L36.75 7.5C37.3713 7.5 37.9016 7.71967 38.341 8.15901C38.7803 8.59835 39 9.12868 39 9.75L39 42.75C39 43.3713 38.7803 43.9016 38.341 44.341C37.9016 44.7803 37.3713 45 36.75 45ZM15.75 45L12.75 45C12.1287 45 11.5983 44.7803 11.159 44.341C10.7197 43.9016 10.5 43.3713 10.5 42.75L10.5 2.25C10.5 1.62868 10.7197 1.09835 11.159 0.65901C11.5983 0.21967 12.1287 0 12.75 0L15.75 0C16.3713 0 16.9016 0.21967 17.341 0.659009C17.7803 1.09835 18 1.62868 18 2.25L18 42.75C18 43.3713 17.7803 43.9016 17.341 44.341C16.9016 44.7803 16.3713 45 15.75 45Z" fill-rule="nonzero" transform="matrix(1 0 0 1 4.5 1.5)" fill="rgb(26, 86, 219)"/>
	</g>
</svg>
