<?xml version="1.0" encoding="utf-8" ?>
<svg xmlns="http://www.w3.org/2000/svg" xmlns:xlink="http://www.w3.org/1999/xlink" width="48" height="48" viewBox="0 0 48 48">
	<defs>
		<clipPath id="clipPath9632132954">
			<path d="M0 0L48 0L48 48L0 48L0 0Z" fill-rule="nonzero" transform="matrix(1 0 0 1 -0 -0)"/>
		</clipPath>
	</defs>
	<g clip-path="url(#clipPath9632132954)">
		<path d="M3 -1.5L21 -1.5Q22.864 -1.5 24.182 -0.181979Q25.5 1.13604 25.5 3L25.5 13.5L36 13.5Q37.864 13.5 39.182 14.818Q40.5 16.136 40.5 18L40.5 42Q40.5 42.0737 40.4928 42.147Q40.4856 42.2204 40.4712 42.2926Q40.4568 42.3649 40.4354 42.4354Q40.414 42.5059 40.3858 42.574Q40.3576 42.6421 40.3229 42.7071Q40.2881 42.7721 40.2472 42.8334Q40.2063 42.8946 40.1595 42.9516Q40.1128 43.0086 40.0607 43.0607Q40.0086 43.1128 39.9516 43.1595Q39.8946 43.2063 39.8334 43.2472Q39.7721 43.2881 39.7071 43.3229Q39.6421 43.3576 39.574 43.3858Q39.5059 43.414 39.4354 43.4354Q39.3649 43.4568 39.2926 43.4712Q39.2204 43.4856 39.147 43.4928Q39.0737 43.5 39 43.5L24 43.5Q23.914 43.5 23.8286 43.4902Q23.7289 43.5 23.6251 43.5L0 43.5Q-0.0736903 43.5 -0.147026 43.4928Q-0.220361 43.4856 -0.292635 43.4712Q-0.36491 43.4568 -0.435427 43.4354Q-0.505944 43.414 -0.574025 43.3858Q-0.642106 43.3576 -0.707095 43.3229Q-0.772084 43.2881 -0.833355 43.2472Q-0.894626 43.2063 -0.95159 43.1595Q-1.00855 43.1128 -1.06066 43.0607Q-1.11277 43.0086 -1.15952 42.9516Q-1.20626 42.8946 -1.2472 42.8334Q-1.28814 42.7721 -1.32288 42.7071Q-1.35762 42.6421 -1.38582 42.574Q-1.41402 42.5059 -1.43541 42.4354Q-1.4568 42.3649 -1.47118 42.2926Q-1.48555 42.2204 -1.49278 42.147Q-1.5 42.0737 -1.5 42L-1.5 3Q-1.5 1.13604 -0.181981 -0.18198Q1.13604 -1.5 3 -1.5ZM13.5 40.5L13.5 36C13.5 35.1716 12.8284 34.5 12 34.5C11.1716 34.5 10.5 35.1716 10.5 36L10.5 40.5L1.5 40.5L1.5 3Q1.5 2.37868 1.93934 1.93934Q2.37868 1.5 3 1.5L21 1.5Q21.6213 1.5 22.0607 1.93934Q22.5 2.37868 22.5 3L22.5 40.5L13.5 40.5ZM25.5 40.5L37.5 40.5L37.5 18Q37.5 17.3787 37.0607 16.9393Q36.6213 16.5 36 16.5L25.5 16.5L25.5 40.5Z" fill-rule="evenodd" transform="matrix(1 0 0 1 4.5 3)" fill="rgb(26, 86, 219)"/>
		<path d="M1.69476 32.9876C1.25864 33.0446 0.872184 32.9317 0.535408 32.6488C0.19863 32.3658 0.0207114 32.0047 0.00165081 31.5652C-0.0174098 31.1258 0.128567 30.7506 0.439582 30.4396C0.750596 30.1286 1.12582 29.9826 1.56525 30.0017C2.00467 30.0207 2.36584 30.1986 2.64876 30.5354C2.93168 30.8722 3.04461 31.2586 2.98758 31.6948C2.94349 32.0318 2.80127 32.3205 2.5609 32.5609C2.32054 32.8013 2.03182 32.9435 1.69476 32.9876ZM1.69476 25.4876C1.25864 25.5446 0.872184 25.4317 0.535408 25.1488C0.19863 24.8658 0.0207114 24.5047 0.00165081 24.0652C-0.0174098 23.6258 0.128567 23.2506 0.439582 22.9396C0.750596 22.6286 1.12582 22.4826 1.56525 22.5017C2.00467 22.5207 2.36584 22.6986 2.64876 23.0354C2.93168 23.3722 3.04461 23.7586 2.98758 24.1948C2.94349 24.5318 2.80127 24.8205 2.5609 25.0609C2.32054 25.3013 2.03182 25.4435 1.69476 25.4876ZM1.69476 17.9876C1.25864 18.0446 0.872184 17.9317 0.535408 17.6488C0.19863 17.3658 0.0207114 17.0047 0.00165081 16.5652C-0.0174098 16.1258 0.128567 15.7506 0.439582 15.4396C0.750596 15.1286 1.12582 14.9826 1.56525 15.0017C2.00467 15.0207 2.36584 15.1986 2.64876 15.5354C2.93168 15.8722 3.04461 16.2586 2.98758 16.6948C2.94349 17.0318 2.80127 17.3205 2.5609 17.5609C2.32054 17.8013 2.03182 17.9435 1.69476 17.9876ZM1.69476 10.4876C1.25864 10.5446 0.872184 10.4317 0.535408 10.1488C0.19863 9.86584 0.0207114 9.50467 0.00165081 9.06525C-0.0174098 8.62582 0.128567 8.2506 0.439582 7.93958C0.750596 7.62857 1.12582 7.48259 1.56525 7.50165C2.00467 7.52071 2.36584 7.69863 2.64876 8.03541C2.93168 8.37219 3.04461 8.75864 2.98758 9.19476C2.94349 9.53182 2.80127 9.82054 2.5609 10.0609C2.32054 10.3013 2.03182 10.4435 1.69476 10.4876ZM1.69476 2.98758C1.25864 3.04461 0.872184 2.93168 0.535408 2.64876C0.19863 2.36584 0.0207114 2.00467 0.00165081 1.56524C-0.0174093 1.12582 0.128568 0.750595 0.439583 0.439581C0.750597 0.128567 1.12582 -0.0174098 1.56525 0.00165081C2.00467 0.0207119 2.36585 0.198631 2.64876 0.535408C2.93168 0.872185 3.04462 1.25864 2.98758 1.69476C2.94349 2.03182 2.80127 2.32054 2.5609 2.5609C2.32053 2.80127 2.03182 2.94349 1.69476 2.98758ZM9.19476 25.4876C8.75864 25.5446 8.37218 25.4317 8.03541 25.1488C7.69863 24.8658 7.52071 24.5047 7.50165 24.0652C7.48259 23.6258 7.62857 23.2506 7.93958 22.9396C8.2506 22.6286 8.62582 22.4826 9.06524 22.5017C9.50467 22.5207 9.86584 22.6986 10.1488 23.0354C10.4317 23.3722 10.5446 23.7586 10.4876 24.1948C10.4435 24.5318 10.3013 24.8205 10.0609 25.0609C9.82054 25.3013 9.53182 25.4435 9.19476 25.4876ZM9.19476 17.9876C8.75864 18.0446 8.37218 17.9317 8.03541 17.6488C7.69863 17.3658 7.52071 17.0047 7.50165 16.5652C7.48259 16.1258 7.62857 15.7506 7.93958 15.4396C8.2506 15.1286 8.62582 14.9826 9.06524 15.0017C9.50467 15.0207 9.86584 15.1986 10.1488 15.5354C10.4317 15.8722 10.5446 16.2586 10.4876 16.6948C10.4435 17.0318 10.3013 17.3205 10.0609 17.5609C9.82054 17.8013 9.53182 17.9435 9.19476 17.9876ZM9.19476 10.4876C8.75864 10.5446 8.37218 10.4317 8.03541 10.1488C7.69863 9.86584 7.52071 9.50467 7.50165 9.06525C7.48259 8.62582 7.62857 8.2506 7.93958 7.93958C8.2506 7.62857 8.62582 7.48259 9.06525 7.50165C9.50467 7.52071 9.86585 7.69863 10.1488 8.03541C10.4317 8.37219 10.5446 8.75864 10.4876 9.19476C10.4435 9.53182 10.3013 9.82054 10.0609 10.0609C9.82054 10.3013 9.53182 10.4435 9.19476 10.4876ZM9.19476 2.98758C8.75864 3.04461 8.37218 2.93168 8.03541 2.64876C7.69863 2.36584 7.52071 2.00467 7.50165 1.56524C7.48259 1.12582 7.62857 0.750595 7.93958 0.439581C8.2506 0.128567 8.62582 -0.0174098 9.06525 0.00165081C9.50467 0.0207119 9.86585 0.198631 10.1488 0.535408C10.4317 0.872185 10.5446 1.25864 10.4876 1.69476C10.4435 2.03182 10.3013 2.32054 10.0609 2.5609C9.82053 2.80127 9.53182 2.94349 9.19476 2.98758ZM16.6948 32.9876C16.2586 33.0446 15.8722 32.9317 15.5354 32.6488C15.1986 32.3658 15.0207 32.0047 15.0017 31.5652C14.9826 31.1258 15.1286 30.7506 15.4396 30.4396C15.7506 30.1286 16.1258 29.9826 16.5653 30.0017C17.0047 30.0207 17.3659 30.1986 17.6488 30.5354C17.9317 30.8722 18.0446 31.2586 17.9876 31.6948C17.9435 32.0318 17.8013 32.3205 17.5609 32.5609C17.3205 32.8013 17.0318 32.9435 16.6948 32.9876ZM16.6948 25.4876C16.2586 25.5446 15.8722 25.4317 15.5354 25.1488C15.1986 24.8658 15.0207 24.5047 15.0017 24.0652C14.9826 23.6258 15.1286 23.2506 15.4396 22.9396C15.7506 22.6286 16.1258 22.4826 16.5653 22.5017C17.0047 22.5207 17.3659 22.6986 17.6488 23.0354C17.9317 23.3722 18.0446 23.7586 17.9876 24.1948C17.9435 24.5318 17.8013 24.8205 17.5609 25.0609C17.3205 25.3013 17.0318 25.4435 16.6948 25.4876ZM16.6948 17.9876C16.2586 18.0446 15.8722 17.9317 15.5354 17.6488C15.1986 17.3658 15.0207 17.0047 15.0017 16.5652C14.9826 16.1258 15.1286 15.7506 15.4396 15.4396C15.7506 15.1286 16.1258 14.9826 16.5653 15.0017C17.0047 15.0207 17.3659 15.1986 17.6488 15.5354C17.9317 15.8722 18.0446 16.2586 17.9876 16.6948C17.9435 17.0318 17.8013 17.3205 17.5609 17.5609C17.3205 17.8013 17.0318 17.9435 16.6948 17.9876Z" fill-rule="nonzero" transform="matrix(1 0 0 1 7.50024 7.50024)" fill="rgb(26, 86, 219)"/>
		<path d="M1.49531 0C2.32115 0 2.99062 0.672832 2.99062 1.50281C2.99062 2.33279 2.32115 3.00563 1.49531 3.00563C0.669474 3.00563 0 2.33279 0 1.50281C0 0.672832 0.669474 0 1.49531 0Z" fill-rule="nonzero" transform="matrix(0.707107 -0.707107 0.707107 0.707107 21.88 16.4939)" fill="rgb(26, 86, 219)"/>
		<path d="M1.69476 2.98758C1.25864 3.04461 0.872184 2.93168 0.535406 2.64876C0.198629 2.36584 0.0207109 2.00467 0.00165081 1.56524C-0.0174103 1.12582 0.128566 0.750596 0.43958 0.439582C0.750596 0.128567 1.12582 -0.0174098 1.56524 0.00165081C2.00467 0.0207114 2.36584 0.19863 2.64876 0.535407C2.93168 0.872184 3.04462 1.25864 2.98758 1.69476C2.94349 2.03182 2.80127 2.32054 2.5609 2.5609C2.32054 2.80127 2.03182 2.94349 1.69476 2.98758ZM14.9998 29.9998C14.5855 29.9998 14.232 30.1462 13.9391 30.4391C13.6462 30.732 13.4998 31.0855 13.4998 31.4998C13.4998 31.914 13.6462 32.2675 13.9391 32.5604C14.232 32.8533 14.5855 32.9998 14.9998 32.9998C15.414 32.9998 15.7675 32.8533 16.0604 32.5604C16.3533 32.2675 16.4998 31.914 16.4998 31.4998C16.4998 31.0855 16.3533 30.732 16.0604 30.4391C15.7675 30.1462 15.414 29.9998 14.9998 29.9998ZM14.9998 22.4998C14.5855 22.4998 14.232 22.6462 13.9391 22.9391C13.6462 23.232 13.4998 23.5855 13.4998 23.9998C13.4998 24.414 13.6462 24.7675 13.9391 25.0604C14.232 25.3533 14.5855 25.4998 14.9998 25.4998C15.414 25.4998 15.7675 25.3533 16.0604 25.0604C16.3533 24.7675 16.4998 24.414 16.4998 23.9998C16.4998 23.5855 16.3533 23.232 16.0604 22.9391C15.7675 22.6462 15.414 22.4998 14.9998 22.4998ZM14.9998 14.9998C14.5855 14.9998 14.232 15.1462 13.9391 15.4391C13.6462 15.732 13.4998 16.0855 13.4998 16.4998C13.4998 16.914 13.6462 17.2675 13.9391 17.5604C14.232 17.8533 14.5855 17.9998 14.9998 17.9998C15.414 17.9998 15.7675 17.8533 16.0604 17.5604C16.3533 17.2675 16.4998 16.914 16.4998 16.4998C16.4998 16.0855 16.3533 15.732 16.0604 15.4391C15.7675 15.1462 15.414 14.9998 14.9998 14.9998ZM8.99976 29.9998C8.58555 29.9998 8.23199 30.1462 7.9391 30.4391C7.64621 30.732 7.49976 31.0855 7.49976 31.4998C7.49976 31.914 7.64621 32.2675 7.9391 32.5604C8.23199 32.8533 8.58555 32.9998 8.99976 32.9998C9.41397 32.9998 9.76753 32.8533 10.0604 32.5604C10.3533 32.2675 10.4998 31.914 10.4998 31.4998C10.4998 31.0855 10.3533 30.732 10.0604 30.4391C9.76753 30.1462 9.41397 29.9998 8.99976 29.9998ZM8.99976 22.4998C8.58555 22.4998 8.23199 22.6462 7.9391 22.9391C7.64621 23.232 7.49976 23.5855 7.49976 23.9998C7.49976 24.414 7.64621 24.7675 7.9391 25.0604C8.23199 25.3533 8.58555 25.4998 8.99976 25.4998C9.41397 25.4998 9.76753 25.3533 10.0604 25.0604C10.3533 24.7675 10.4998 24.414 10.4998 23.9998C10.4998 23.5855 10.3533 23.232 10.0604 22.9391C9.76753 22.6462 9.41397 22.4998 8.99976 22.4998ZM8.99976 14.9998C8.58555 14.9998 8.23199 15.1462 7.9391 15.4391C7.64621 15.732 7.49976 16.0855 7.49976 16.4998C7.49976 16.914 7.64621 17.2675 7.9391 17.5604C8.23199 17.8533 8.58555 17.9998 8.99976 17.9998C9.41397 17.9998 9.76753 17.8533 10.0604 17.5604C10.3533 17.2675 10.4998 16.914 10.4998 16.4998C10.4998 16.0855 10.3533 15.732 10.0604 15.4391C9.76753 15.1462 9.41397 14.9998 8.99976 14.9998Z" fill-rule="nonzero" transform="matrix(1 0 0 1 22.5002 7.50024)" fill="rgb(26, 86, 219)"/>
	</g>
</svg>
