<?xml version="1.0" encoding="utf-8" ?>
<svg xmlns="http://www.w3.org/2000/svg" xmlns:xlink="http://www.w3.org/1999/xlink" width="48" height="48" viewBox="0 0 48 48">
	<defs>
		<clipPath id="clipPath2529899851">
			<path d="M0 0L48 0L48 48L0 48L0 0Z" fill-rule="nonzero" transform="matrix(1 0 0 1 -0 -0)"/>
		</clipPath>
	</defs>
	<g clip-path="url(#clipPath2529899851)">
		<path d="M32.625 18L19.5 18C18.2574 18 17.1967 17.5607 16.318 16.682C15.4393 15.8033 15 14.7426 15 13.5L15 0.375C15 0.271446 14.9634 0.183058 14.8902 0.109835C14.8169 0.0366116 14.7286 0 14.625 0L6 0C4.34315 0 2.92893 0.585786 1.75736 1.75736C0.585786 2.92893 0 4.34315 0 6L0 36C0 37.6569 0.585786 39.0711 1.75736 40.2426C2.92893 41.4142 4.34315 42 6 42L27 42C28.6569 42 30.0711 41.4142 31.2426 40.2426C32.4142 39.0711 33 37.6569 33 36L33 18.375C33 18.2714 32.9634 18.1831 32.8902 18.1098C32.8169 18.0366 32.7286 18 32.625 18ZM24 33L9 33C8.58579 33 8.23223 32.8536 7.93934 32.5607C7.64645 32.2678 7.5 31.9142 7.5 31.5C7.5 31.0858 7.64645 30.7322 7.93934 30.4393C8.23223 30.1464 8.58579 30 9 30L24 30C24.4142 30 24.7678 30.1464 25.0607 30.4393C25.3535 30.7322 25.5 31.0858 25.5 31.5C25.5 31.9142 25.3535 32.2678 25.0607 32.5607C24.7678 32.8536 24.4142 33 24 33ZM24 25.5L9 25.5C8.58579 25.5 8.23223 25.3536 7.93934 25.0607C7.64645 24.7678 7.5 24.4142 7.5 24C7.5 23.5858 7.64645 23.2322 7.93934 22.9393C8.23223 22.6464 8.58579 22.5 9 22.5L24 22.5C24.4142 22.5 24.7678 22.6464 25.0607 22.9393C25.3535 23.2322 25.5 23.5858 25.5 24C25.5 24.4142 25.3535 24.7678 25.0607 25.0607C24.7678 25.3536 24.4142 25.5 24 25.5Z" fill-rule="nonzero" transform="matrix(1 0 0 1 7.5 3)" fill="rgb(26, 86, 219)"/>
		<path d="M13.8019 13.5369L0.319688 0.054667C0.292884 0.0280204 0.260942 0.011032 0.223864 0.00370181C0.186785 -0.00362837 0.150782 -7.22408e-05 0.115854 0.0143702C0.0809269 0.0288126 0.0529261 0.0517217 0.0318518 0.0830973C0.0107775 0.114473 0.000160217 0.149059 0 0.186854L0 12.3565C0 12.7708 0.146446 13.1243 0.439339 13.4172C0.732231 13.7101 1.08578 13.8565 1.5 13.8565L13.6697 13.8565C13.7075 13.8564 13.7421 13.8458 13.7734 13.8247C13.8048 13.8036 13.8277 13.7756 13.8422 13.7407C13.8566 13.7058 13.8602 13.6698 13.8528 13.6327C13.8455 13.5956 13.8285 13.5637 13.8019 13.5369Z" fill-rule="nonzero" transform="matrix(1 0 0 1 25.5 4.14346)" fill="rgb(26, 86, 219)"/>
	</g>
</svg>
