<?xml version="1.0" encoding="utf-8" ?>
<svg xmlns="http://www.w3.org/2000/svg" xmlns:xlink="http://www.w3.org/1999/xlink" width="24" height="24" viewBox="0 0 24 24">
	<defs>
		<clipPath id="clipPath4262509484">
			<path d="M0 0L24 0L24 24L0 24L0 0Z" fill-rule="nonzero" transform="matrix(1 0 0 1 -0 -0)"/>
		</clipPath>
	</defs>
	<g clip-path="url(#clipPath4262509484)">
		<path d="M19.3205 0L1.79437 0C0.836719 0 0 0.689063 0 1.63547L0 19.2005C0 20.152 0.836719 21 1.79437 21L19.3153 21C20.2781 21 21 20.1464 21 19.2005L21 1.63547C21.0056 0.689063 20.2781 0 19.3205 0ZM6.50953 17.5045L3.50109 17.5045L3.50109 8.15063L6.50953 8.15063L6.50953 17.5045ZM5.10938 6.72844L5.08781 6.72844C4.125 6.72844 3.50156 6.01172 3.50156 5.11453C3.50156 4.20094 4.14141 3.50109 5.12578 3.50109C6.11016 3.50109 6.7125 4.19578 6.73406 5.11453C6.73359 6.01172 6.11016 6.72844 5.10938 6.72844ZM17.5045 17.5045L14.4961 17.5045L14.4961 12.39C14.4961 11.1647 14.0583 10.3275 12.9698 10.3275C12.1383 10.3275 11.6461 10.89 11.4272 11.438C11.3452 11.6348 11.3231 11.903 11.3231 12.1767L11.3231 17.5045L8.31469 17.5045L8.31469 8.15063L11.3231 8.15063L11.3231 9.45234C11.7609 8.82891 12.4448 7.93172 14.0363 7.93172C16.0111 7.93172 17.505 9.23344 17.505 12.0398L17.5045 17.5045Z" fill-rule="nonzero" transform="matrix(1 0 0 1 1.5 1.5)" fill="rgb(156, 163, 175)"/>
	</g>
</svg>
