<?xml version="1.0" encoding="utf-8" ?>
<svg xmlns="http://www.w3.org/2000/svg" xmlns:xlink="http://www.w3.org/1999/xlink" width="20" height="20" viewBox="0 0 20 20">
	<defs>
		<clipPath id="clipPath3397028268">
			<path d="M0 0L20 0L20 20L0 20L0 0Z" fill-rule="nonzero" transform="matrix(1 0 0 1 -0 -0)"/>
		</clipPath>
	</defs>
	<g clip-path="url(#clipPath3397028268)">
		<path d="M-0.625 1.5625C-0.625 0.354377 0.354377 -0.625 1.5625 -0.625L14.6875 -0.625C15.8956 -0.625 16.875 0.354377 16.875 1.5625L16.875 10.9375C16.875 12.1456 15.8956 13.125 14.6875 13.125L1.5625 13.125C0.354377 13.125 -0.625 12.1456 -0.625 10.9375L-0.625 1.5625ZM1.5625 0.625C1.04473 0.625 0.625 1.04473 0.625 1.5625L0.625 10.9375C0.625 11.4553 1.04473 11.875 1.5625 11.875L14.6875 11.875C15.2053 11.875 15.625 11.4553 15.625 10.9375L15.625 1.5625C15.625 1.04473 15.2053 0.625 14.6875 0.625L1.5625 0.625Z" fill-rule="nonzero" transform="matrix(1 0 0 1 1.875 3.75)" fill="rgb(255, 255, 255)"/>
		<path d="M-0.493345 -0.383713C-0.705262 -0.111248 -0.656178 0.281428 -0.383713 0.493345L5.24129 4.86835Q5.28215 4.90012 5.32767 4.92475Q5.3732 4.94937 5.42216 4.96617Q5.47112 4.98297 5.52218 4.99148Q5.57324 5 5.625 5Q5.67676 5 5.72782 4.99149Q5.77888 4.98297 5.82784 4.96617Q5.8768 4.94937 5.92233 4.92475Q5.96785 4.90012 6.00871 4.86835L11.6337 0.493345C11.9062 0.281428 11.9553 -0.111248 11.7433 -0.383713C11.5314 -0.656178 11.1388 -0.705262 10.8663 -0.493345L5.625 3.58321L0.383713 -0.493345C0.111248 -0.705262 -0.281428 -0.656178 -0.493345 -0.383713Z" fill-rule="evenodd" transform="matrix(1 0 0 1 4.375 6.25)" fill="rgb(255, 255, 255)"/>
	</g>
</svg>
