<?xml version="1.0" encoding="utf-8" ?>
<svg xmlns="http://www.w3.org/2000/svg" xmlns:xlink="http://www.w3.org/1999/xlink" width="24" height="24" viewBox="0 0 24 24">
	<defs>
		<clipPath id="clipPath1396875831">
			<path d="M0 0L24 0L24 24L0 24L0 0Z" fill-rule="nonzero" transform="matrix(1 0 0 1 -0 -0)"/>
		</clipPath>
	</defs>
	<g clip-path="url(#clipPath1396875831)">
		<path d="M17.25 9Q17.25 7.32181 16.6018 5.78982Q15.9754 4.3095 14.833 3.16705Q13.6905 2.0246 12.2102 1.39823Q10.6782 0.75 9 0.75Q7.32181 0.75 5.78982 1.39823Q4.3095 2.0246 3.16705 3.16705Q2.0246 4.3095 1.39823 5.78982Q0.75 7.32181 0.75 9Q0.75 10.6782 1.39823 12.2102Q2.0246 13.6905 3.16705 14.833Q4.3095 15.9754 5.78982 16.6018Q7.32181 17.25 9 17.25Q10.6782 17.25 12.2102 16.6018Q13.6905 15.9754 14.833 14.833Q15.9754 13.6905 16.6018 12.2102Q17.25 10.6782 17.25 9ZM18.75 9Q18.75 10.9825 17.9832 12.7947Q17.2429 14.5444 15.8936 15.8936Q14.5444 17.2429 12.7947 17.9832Q10.9825 18.75 9 18.75Q7.01753 18.75 5.2053 17.9832Q3.45564 17.2429 2.10639 15.8936Q0.757141 14.5444 0.0168071 12.7947Q-0.75 10.9825 -0.75 9Q-0.75 7.01753 0.0168071 5.2053Q0.757139 3.45564 2.10639 2.10639Q3.45564 0.75714 5.2053 0.0168071Q7.01753 -0.75 9 -0.75Q10.9825 -0.75 12.7947 0.0168071Q14.5444 0.75714 15.8936 2.10639Q17.2429 3.45564 17.9832 5.2053Q18.75 7.01753 18.75 9Z" fill-rule="nonzero" transform="matrix(1 0 0 1 3 3)" fill="rgb(26, 86, 219)"/>
		<path d="M8.42572 -0.482394C8.69214 -0.799557 9.16523 -0.840695 9.48239 -0.574279C9.79956 -0.307862 9.8407 0.165232 9.57428 0.482394L3.27428 7.98239Q3.17832 8.09663 3.04596 8.16544Q2.9136 8.23426 2.76497 8.24718Q2.61635 8.2601 2.47409 8.21517Q2.33184 8.17023 2.21761 8.07428Q2.17754 8.04062 2.14253 8.00172L-0.557471 5.00172C-0.834563 4.69384 -0.809603 4.21962 -0.501724 3.94253C-0.193844 3.66544 0.280379 3.6904 0.557471 3.99828L2.68048 6.35718L8.42572 -0.482394Z" fill-rule="evenodd" transform="matrix(1 0 0 1 7.5 8.25)" fill="rgb(26, 86, 219)"/>
	</g>
</svg>
