<?xml version="1.0" encoding="utf-8" ?>
<svg xmlns="http://www.w3.org/2000/svg" xmlns:xlink="http://www.w3.org/1999/xlink" width="16" height="16" viewBox="0 0 16 16">
	<defs>
		<clipPath id="clipPath2305781662">
			<path d="M0 0L16 0L16 16L0 16L0 0Z" fill-rule="nonzero" transform="matrix(1 0 0 1 -0 -0)"/>
		</clipPath>
	</defs>
	<g clip-path="url(#clipPath2305781662)">
		<path d="M10.4 8L11.6 8C11.8 8 12 7.8 12 7.6L12 3.4C12 3.2 11.8 3 11.6 3L10.4 3C10.2 3 10 3.2 10 3.4L10 7.6C10 7.8 10.2 8 10.4 8ZM13.4 8L14.6 8C14.8 8 15 7.8 15 7.6L15 0.4C15 0.2 14.8 0 14.6 0L13.4 0C13.2 0 13 0.2 13 0.4L13 7.6C13 7.8 13.2 8 13.4 8ZM4.4 8L5.6 8C5.8 8 6 7.8 6 7.6L6 5.4C6 5.2 5.8 5 5.6 5L4.4 5C4.2 5 4 5.2 4 5.4L4 7.6C4 7.8 4.2 8 4.4 8ZM7.4 8L8.6 8C8.8 8 9 7.8 9 7.6L9 1.4C9 1.2 8.8 1 8.6 1L7.4 1C7.2 1 7 1.2 7 1.4L7 7.6C7 7.8 7.2 8 7.4 8ZM15.5 10L2 10L2 0.5C2 0.22375 1.77625 0 1.5 0L0.5 0C0.22375 0 0 0.22375 0 0.5L0 11C0 11.5522 0.447812 12 1 12L15.5 12C15.7762 12 16 11.7762 16 11.5L16 10.5C16 10.2238 15.7762 10 15.5 10Z" fill-rule="nonzero" transform="matrix(1 0 0 1 0 2)" fill="rgb(55, 65, 81)"/>
	</g>
</svg>
