<?xml version="1.0" encoding="utf-8" ?>
<svg xmlns="http://www.w3.org/2000/svg" xmlns:xlink="http://www.w3.org/1999/xlink" width="16" height="12.8" viewBox="0 0 16 12.8">
	<defs>
		<clipPath id="clipPath0469149550">
			<path d="M0 0L16 0L16 12.8L0 12.8L0 0Z" fill-rule="nonzero" transform="matrix(1 0 0 1 -0 -0)"/>
		</clipPath>
	</defs>
	<g clip-path="url(#clipPath0469149550)">
		<path d="M15.5584 1.78405L8.58488 0.07005C8.20487 -0.02335 7.79487 -0.02335 7.41512 0.07005L0.441375 1.78405C-0.147125 1.92865 -0.147125 2.55125 0.441375 2.69585L1.65713 2.99465C1.39038 3.25845 1.22638 3.58025 1.21013 3.93265C0.969375 4.04305 0.799875 4.24225 0.799875 4.48005C0.799875 4.69565 0.941875 4.87705 1.14638 4.99305L0.508125 7.29065C0.452625 7.49045 0.642625 7.68005 0.898375 7.68005L2.30113 7.68005C2.55713 7.68005 2.74713 7.49045 2.69163 7.29065L2.05338 4.99305C2.25787 4.87705 2.39988 4.69565 2.39988 4.48005C2.39988 4.24865 2.23813 4.05505 2.00837 3.94265C2.02737 3.64225 2.21937 3.37665 2.52562 3.20825L7.41488 4.41005C7.64138 4.46565 8.07588 4.53505 8.58463 4.41005L15.5584 2.69605C16.1471 2.55125 16.1471 1.92885 15.5584 1.78405ZM8.81962 5.02185C8.10637 5.19705 7.49863 5.10025 7.17988 5.02185L3.55438 4.13085L3.19988 6.40005C3.19988 7.10705 5.34888 7.68005 7.99988 7.68005C10.6509 7.68005 12.7999 7.10705 12.7999 6.40005L12.4454 4.13065L8.81962 5.02185Z" fill-rule="nonzero" transform="matrix(1 0 0 1 0.00012207 2.55996)" fill="rgb(55, 65, 81)"/>
	</g>
</svg>
