<?xml version="1.0" encoding="utf-8" ?>
<svg xmlns="http://www.w3.org/2000/svg" xmlns:xlink="http://www.w3.org/1999/xlink" width="16" height="12.8" viewBox="0 0 16 12.8">
	<defs>
		<clipPath id="clipPath9297339855">
			<path d="M0 0L16 0L16 12.8L0 12.8L0 0Z" fill-rule="nonzero" transform="matrix(1 0 0 1 -0 -0)"/>
		</clipPath>
	</defs>
	<g clip-path="url(#clipPath9297339855)">
		<path d="M6.97312 10.2293L5.44812 9.87526C5.28813 9.83926 5.19812 9.70526 5.24312 9.57726L8.65563 0.173257C8.70063 0.0452565 8.86812 -0.0267435 9.02812 0.00925652L10.5531 0.363257C10.7131 0.399257 10.8031 0.533257 10.7581 0.661257L7.34562 10.0653C7.29812 10.1933 7.13312 10.2673 6.97312 10.2293ZM4.12312 7.98526L5.21062 7.05726C5.32562 6.95926 5.31812 6.80326 5.19062 6.71326L2.92563 5.11926L5.19063 3.52526C5.31813 3.43526 5.32812 3.27926 5.21063 3.18126L4.12313 2.25326C4.01062 2.15726 3.82063 2.15126 3.69813 2.24326L0.095625 4.94326C-0.031875 5.03726 -0.031875 5.19926 0.095625 5.29326L3.69813 7.99526C3.82063 8.08726 4.01062 8.08326 4.12312 7.98526ZM12.3031 7.99726L15.9056 5.29526C16.0331 5.20126 16.0331 5.03926 15.9056 4.94526L12.3031 2.24126C12.1831 2.15126 11.9931 2.15526 11.8781 2.25126L10.7906 3.17926C10.6756 3.27726 10.6831 3.43326 10.8106 3.52326L13.0756 5.11926L10.8106 6.71326C10.6831 6.80326 10.6731 6.95926 10.7906 7.05726L11.8781 7.98526C11.9906 8.08326 12.1806 8.08726 12.3031 7.99726Z" fill-rule="nonzero" transform="matrix(1 0 0 1 -0.00062561 1.28074)" fill="rgb(55, 65, 81)"/>
	</g>
</svg>
