<?xml version="1.0" encoding="utf-8" ?>
<svg xmlns="http://www.w3.org/2000/svg" xmlns:xlink="http://www.w3.org/1999/xlink" width="24" height="24" viewBox="0 0 24 24">
	<defs>
		<clipPath id="clipPath9090009639">
			<path d="M0 0L24 0L24 24L0 24L0 0Z" fill-rule="nonzero" transform="matrix(1 0 0 1 -0 -0)"/>
		</clipPath>
	</defs>
	<g clip-path="url(#clipPath9090009639)">
		<path d="M11.625 0C5.20312 0 0 5.20312 0 11.625C0 18.0469 5.20312 23.25 11.625 23.25C18.0469 23.25 23.25 18.0469 23.25 11.625C23.25 5.20312 18.0469 0 11.625 0ZM17.3344 7.96406L15.4266 16.9547C15.2859 17.5922 14.9062 17.7469 14.3766 17.4469L11.4703 15.3047L10.0687 16.6547C9.91406 16.8094 9.78281 16.9406 9.48281 16.9406L9.68906 13.9828L15.075 9.11719C15.3094 8.91094 15.0234 8.79375 14.7141 9L8.05781 13.1906L5.18906 12.2953C4.56562 12.0984 4.55156 11.6719 5.32031 11.3719L16.5281 7.05C17.0484 6.8625 17.5031 7.17656 17.3344 7.96406Z" fill-rule="nonzero" transform="matrix(1 0 0 1 0.375 0.375)" fill="rgb(26, 86, 219)"/>
	</g>
</svg>
