<?xml version="1.0" encoding="utf-8" ?>
<svg xmlns="http://www.w3.org/2000/svg" xmlns:xlink="http://www.w3.org/1999/xlink" width="18" height="24" viewBox="0 0 18 24">
	<path d="M10.5 6.375L10.5 0L1.125 0C0.501562 0 0 0.501562 0 1.125L0 22.875C0 23.4984 0.501562 24 1.125 24L16.875 24C17.4984 24 18 23.4984 18 22.875L18 7.5L11.625 7.5C11.0063 7.5 10.5 6.99375 10.5 6.375ZM13.5 17.4375C13.5 17.7469 13.2469 18 12.9375 18L5.0625 18C4.75313 18 4.5 17.7469 4.5 17.4375L4.5 17.0625C4.5 16.7531 4.75313 16.5 5.0625 16.5L12.9375 16.5C13.2469 16.5 13.5 16.7531 13.5 17.0625L13.5 17.4375ZM13.5 14.4375C13.5 14.7469 13.2469 15 12.9375 15L5.0625 15C4.75313 15 4.5 14.7469 4.5 14.4375L4.5 14.0625C4.5 13.7531 4.75313 13.5 5.0625 13.5L12.9375 13.5C13.2469 13.5 13.5 13.7531 13.5 14.0625L13.5 14.4375ZM13.5 11.0625L13.5 11.4375C13.5 11.7469 13.2469 12 12.9375 12L5.0625 12C4.75313 12 4.5 11.7469 4.5 11.4375L4.5 11.0625C4.5 10.7531 4.75313 10.5 5.0625 10.5L12.9375 10.5C13.2469 10.5 13.5 10.7531 13.5 11.0625ZM18 5.71406L18 6L12 6L12 0L12.2859 0C12.5859 0 12.8719 0.117188 13.0828 0.328125L17.6719 4.92188C17.8828 5.13281 18 5.41875 18 5.71406Z" fill-rule="nonzero" transform="matrix(1 0 0 1 0 0)" fill="rgb(26, 86, 219)"/>
</svg>
