<?xml version="1.0" encoding="utf-8" ?>
<svg xmlns="http://www.w3.org/2000/svg" xmlns:xlink="http://www.w3.org/1999/xlink" width="32" height="25.6" viewBox="0 0 32 25.6">
	<defs>
		<clipPath id="clipPath5033396005">
			<path d="M0 0L32 0L32 25.6L0 25.6L0 0Z" fill-rule="nonzero" transform="matrix(1 0 0 1 -0 -0)"/>
		</clipPath>
	</defs>
	<g clip-path="url(#clipPath5033396005)">
		<path d="M21.735 0L17.44 0C17.04 0 16.655 0.12 16.36 0.336L11.445 3.936C11.44 3.94 11.435 3.948 11.43 3.952C10.6 4.576 10.615 5.572 11.325 6.192C11.96 6.748 13.295 6.896 14.13 6.3C14.135 6.296 14.145 6.296 14.15 6.292L18.145 3.364C18.47 3.128 18.98 3.144 19.275 3.404C19.575 3.664 19.55 4.068 19.225 4.308L17.92 5.264L25.2 9.992C25.345 10.088 25.475 10.192 25.595 10.3L25.595 2.56L22.865 0.376C22.57 0.136 22.16 0 21.735 0ZM27.2 2.568L27.2 11.524C27.2 12.232 27.915 12.804 28.8 12.804L32 12.804L32 2.568L27.2 2.568ZM29.6 11.524C29.16 11.524 28.8 11.236 28.8 10.884C28.8 10.532 29.16 10.244 29.6 10.244C30.04 10.244 30.4 10.532 30.4 10.884C30.4 11.236 30.04 11.524 29.6 11.524ZM0 12.8L3.2 12.8C4.085 12.8 4.8 12.228 4.8 11.52L4.8 2.568L0 2.568L0 12.8ZM2.4 10.244C2.84 10.244 3.2 10.532 3.2 10.884C3.2 11.236 2.84 11.524 2.4 11.524C1.96 11.524 1.6 11.236 1.6 10.884C1.6 10.528 1.96 10.244 2.4 10.244ZM24.195 10.988L16.73 6.14L15.23 7.24C13.745 8.324 11.47 8.22 10.145 7.064C8.8 5.888 8.905 4.068 10.365 2.996L14.455 0L10.265 0C9.84 0 9.435 0.136 9.135 0.376L6.4 2.56L6.4 11.516L7.315 11.516L11.84 14.792C13.21 15.684 15.225 15.516 16.34 14.42L16.35 14.412L17.245 15.032C18.04 15.552 19.215 15.452 19.86 14.816L21.43 13.272L21.7 13.448C22.385 13.892 23.395 13.812 23.95 13.26L24.425 12.792C24.985 12.24 24.88 11.436 24.195 10.988Z" fill-rule="nonzero" transform="matrix(1 0 0 1 0 5.12002)" fill="rgb(26, 86, 219)"/>
	</g>
</svg>
