<?xml version="1.0" encoding="utf-8" ?>
<svg xmlns="http://www.w3.org/2000/svg" xmlns:xlink="http://www.w3.org/1999/xlink" width="30" height="28" viewBox="0 0 30 28">
	<path d="M30 6.00002L30 7.00002C30 7.13809 29.9512 7.25594 29.8536 7.35357C29.7559 7.4512 29.6381 7.50002 29.5 7.50002L28 7.50002L28 8.25002C28 8.6642 27.6642 9.00002 27.25 9.00002L2.75 9.00002C2.33581 9.00002 2 8.6642 2 8.25002L2 7.50002L0.5 7.50002C0.361929 7.50002 0.244078 7.4512 0.146447 7.35357C0.0488155 7.25594 -3.97364e-08 7.13809 0 7.00002L0 6.00002C7.94729e-07 5.89887 0.028105 5.80625 0.0843127 5.72216C0.14052 5.63807 0.215354 5.57669 0.308812 5.53802L14.8088 0.0380168C14.87 0.0126723 14.9338 0 15 0C15.0662 0 15.13 0.0126723 15.1912 0.0380168L29.6912 5.53802C29.7846 5.57669 29.8595 5.63808 29.9157 5.72217C29.9719 5.80626 30 5.89887 30 6.00002ZM28.5 25L1.5 25C0.671562 25 0 25.6716 0 26.5L0 27.5C-3.97364e-08 27.6381 0.0488154 27.7559 0.146446 27.8536C0.244078 27.9512 0.361929 28 0.5 28L29.5 28C29.6381 28 29.7559 27.9512 29.8536 27.8536C29.9512 27.7559 30 27.6381 30 27.5L30 26.5C30 25.6716 29.3284 25 28.5 25ZM5 10L5 22L2.75 22C2.33581 22 2 22.3358 2 22.75L2 24L28 24L28 22.75C28 22.3358 27.6642 22 27.25 22L25 22L25 10L21 10L21 22L17 22L17 10L13 10L13 22L9 22L9 10L5 10Z" fill-rule="nonzero" transform="matrix(1 0 0 1 0 -1.66893e-05)" fill="rgb(26, 86, 219)"/>
</svg>
