<?xml version="1.0" encoding="utf-8" ?>
<svg xmlns="http://www.w3.org/2000/svg" xmlns:xlink="http://www.w3.org/1999/xlink" width="15.0039" height="16.2485" viewBox="0 0 15.0039 16.2485">
	<path d="M12.5016 11.2443C12.1614 11.2441 11.8348 11.3109 11.522 11.4445C11.2091 11.5781 10.9351 11.7679 10.7 12.0138L4.91875 8.76105C4.97474 8.55078 5.00274 8.33685 5.00274 8.11925C5.00274 7.90166 4.97474 7.68773 4.91875 7.47746L10.7 4.22472C11.3025 4.84934 12.0321 5.09284 12.889 4.95523C13.7458 4.81761 14.3625 4.35788 14.7391 3.57602C15.1157 2.79417 15.0907 2.02536 14.6641 1.26961C14.2376 0.513854 13.5923 0.095135 12.7283 0.0134504C11.8644 -0.0682341 11.1521 0.222133 10.5914 0.884552C10.0308 1.54697 9.86217 2.29747 10.0855 3.13605L4.30429 6.38878C3.82173 5.88563 3.2319 5.6292 2.5348 5.61949C1.83771 5.60979 1.24097 5.8497 0.744581 6.33922C0.248194 6.82875 -9.93411e-08 7.42209 0 8.11925C0 8.81641 0.248194 9.40976 0.744581 9.89928C1.24097 10.3888 1.83771 10.6287 2.5348 10.619C3.2319 10.6093 3.82173 10.3529 4.30429 9.84972L10.0855 13.1025C9.89737 13.8109 10.0008 14.4739 10.3957 15.0913C10.7907 15.7088 11.3492 16.0807 12.0713 16.2069C12.7933 16.3331 13.4449 16.1728 14.0259 15.7259C14.6069 15.279 14.9291 14.6905 14.9924 13.9602C15.0557 13.2299 14.8397 12.5947 14.3442 12.0545C13.8488 11.5143 13.2346 11.2442 12.5016 11.2443Z" fill-rule="nonzero" transform="matrix(1 0 0 1 0.000393391 -0.00011158)" fill="rgb(26, 86, 219)"/>
</svg>
