<?xml version="1.0" encoding="utf-8" ?>
<svg xmlns="http://www.w3.org/2000/svg" xmlns:xlink="http://www.w3.org/1999/xlink" width="20" height="20" viewBox="0 0 20 20">
	<defs>
		<clipPath id="clipPath2993607468">
			<path d="M0 0L20 0L20 20L0 20L0 0Z" fill-rule="nonzero" transform="matrix(1 0 0 1 -0 -0)"/>
		</clipPath>
	</defs>
	<g clip-path="url(#clipPath2993607468)">
		<path d="M-0.625 0C-0.625 0.345175 -0.345175 0.625 0 0.625L17.5 0.625C17.8452 0.625 18.125 0.345175 18.125 0C18.125 -0.345175 17.8452 -0.625 17.5 -0.625L0 -0.625C-0.345175 -0.625 -0.625 -0.345175 -0.625 0ZM2.5 4.375C2.5 4.72017 2.77982 5 3.125 5L14.375 5C14.7202 5 15 4.72017 15 4.375C15 4.02983 14.7202 3.75 14.375 3.75L3.125 3.75C2.77982 3.75 2.5 4.02983 2.5 4.375ZM6.25 8.75C6.25 9.09517 6.52983 9.375 6.875 9.375L10.625 9.375C10.9702 9.375 11.25 9.09517 11.25 8.75C11.25 8.40483 10.9702 8.125 10.625 8.125L6.875 8.125C6.52983 8.125 6.25 8.40483 6.25 8.75Z" fill-rule="evenodd" transform="matrix(1 0 0 1 1.25 5.625)" fill="rgb(0, 0, 0)"/>
	</g>
</svg>
