<?xml version="1.0" encoding="utf-8" ?>
<svg xmlns="http://www.w3.org/2000/svg" xmlns:xlink="http://www.w3.org/1999/xlink" width="16" height="16" viewBox="0 0 16 16">
	<defs>
		<clipPath id="clipPath9764176129">
			<path d="M0 0L16 0L16 16L0 16L0 0Z" fill-rule="nonzero" transform="matrix(1 0 0 1 -0 -0)"/>
		</clipPath>
	</defs>
	<g clip-path="url(#clipPath9764176129)">
		<path d="M0 7.87869L0 1.5C0 0.671562 0.671562 0 1.5 0L7.87869 0C8.0776 1.13062e-06 8.26894 0.0380623 8.45271 0.114183C8.63648 0.190305 8.79869 0.298691 8.93934 0.439344L15.5607 7.06066C16.1464 7.64644 16.1464 8.59619 15.5607 9.18197L9.18197 15.5607C8.59619 16.1464 7.64644 16.1464 7.06066 15.5607L0.439344 8.93934C0.29869 8.79869 0.190303 8.63648 0.114182 8.45271C0.0380606 8.26894 0 8.0776 0 7.87869ZM3.5 2C2.67156 2 2 2.67156 2 3.5C2 4.32844 2.67156 5 3.5 5C4.32844 5 5 4.32844 5 3.5C5 2.67156 4.32844 2 3.5 2Z" fill-rule="nonzero" transform="matrix(1 0 0 1 0 0)" fill="rgb(0, 0, 0)"/>
	</g>
</svg>
