<?xml version="1.0" encoding="utf-8" ?>
<svg xmlns="http://www.w3.org/2000/svg" xmlns:xlink="http://www.w3.org/1999/xlink" width="20" height="20" viewBox="0 0 20 20">
	<defs>
		<clipPath id="clipPath2137828108">
			<path d="M0 0L20 0L20 20L0 20L0 0Z" fill-rule="nonzero" transform="matrix(1 0 0 1 -0 -0)"/>
		</clipPath>
	</defs>
	<g clip-path="url(#clipPath2137828108)">
		<path d="M11.5625 14.375L2.8125 14.375C2.03585 14.375 1.37294 14.1004 0.823762 13.5512C0.274587 13.0021 -1.98682e-07 12.3392 0 11.5625L0 2.8125C0 2.03585 0.274587 1.37294 0.823762 0.823762C1.37294 0.274587 2.03585 0 2.8125 0L11.5625 0C12.3392 0 13.0021 0.274587 13.5512 0.823762C14.1004 1.37294 14.375 2.03585 14.375 2.8125L14.375 11.5625C14.375 12.3392 14.1004 13.0021 13.5512 13.5512C13.0021 14.1004 12.3392 14.375 11.5625 14.375Z" fill-rule="nonzero" transform="matrix(1 0 0 1 4.375 4.375)" fill="rgb(26, 86, 219)"/>
		<path d="M5 1.875L14.2141 1.875C14.0148 1.3136 13.672 0.860925 13.1856 0.516987C12.6993 0.173048 12.1582 0.000719031 11.5625 0L2.8125 0C2.03585 0 1.37294 0.274587 0.823762 0.823762C0.274587 1.37294 0 2.03585 0 2.8125L0 11.5625C0.000718931 12.1582 0.173048 12.6993 0.516987 13.1856C0.860925 13.672 1.3136 14.0148 1.875 14.2141L1.875 5C1.875 4.13705 2.1801 3.40049 2.79029 2.79029C3.40049 2.1801 4.13705 1.875 5 1.875Z" fill-rule="nonzero" transform="matrix(1 0 0 1 1.25 1.25)" fill="rgb(26, 86, 219)"/>
	</g>
</svg>
