<?xml version="1.0" encoding="utf-8" ?>
<svg xmlns="http://www.w3.org/2000/svg" xmlns:xlink="http://www.w3.org/1999/xlink" width="20" height="20" viewBox="0 0 20 20">
	<defs>
		<clipPath id="clipPath2105303852">
			<path d="M0 0L20 0L20 20L0 20L0 0Z" fill-rule="nonzero" transform="matrix(1 0 0 1 -0 -0)"/>
		</clipPath>
	</defs>
	<g clip-path="url(#clipPath2105303852)">
		<path d="M17.5 8.75C17.5 3.91797 13.582 0 8.75 0C3.91797 0 0 3.91797 0 8.75C0 13.1172 3.19922 16.7371 7.38281 17.3941L7.38281 11.2801L5.16055 11.2801L5.16055 8.75L7.38281 8.75L7.38281 6.82227C7.38281 4.62969 8.68945 3.41758 10.6879 3.41758C11.6453 3.41758 12.6469 3.58867 12.6469 3.58867L12.6469 5.74219L11.543 5.74219C10.4566 5.74219 10.1168 6.41641 10.1168 7.10937L10.1168 8.75L12.5434 8.75L12.1559 11.2801L10.1172 11.2801L10.1172 17.3949C14.3008 16.7383 17.5 13.1184 17.5 8.75Z" fill-rule="evenodd" transform="matrix(1 0 0 1 1.25 1.30273)" fill="rgb(26, 86, 219)"/>
	</g>
</svg>
