<?xml version="1.0" encoding="utf-8" ?>
<svg xmlns="http://www.w3.org/2000/svg" xmlns:xlink="http://www.w3.org/1999/xlink" width="16" height="16" viewBox="0 0 16 16">
	<defs>
		<clipPath id="clipPath1892659712">
			<path d="M0 0L16 0L16 16L0 16L0 0Z" fill-rule="nonzero" transform="matrix(1 0 0 1 -0 -0)"/>
		</clipPath>
	</defs>
	<g clip-path="url(#clipPath1892659712)">
		<path d="M6.00745 3.03697Q5.95611 3.72928 5.67926 4.36532Q5.4118 4.97978 4.97136 5.45821Q4.52488 5.94322 3.97014 6.21318Q3.38076 6.5 2.75881 6.5Q2.13688 6.5 1.5473 6.21328Q0.992211 5.94334 0.545551 5.45844Q0.104694 4.97985 -0.162604 4.36534Q-0.439441 3.72889 -0.489866 3.03631Q-0.543224 2.30264 -0.320712 1.64574Q-0.103163 1.00349 0.349163 0.515551Q0.799298 0.0299729 1.41696 -0.232992Q2.04412 -0.5 2.75881 -0.5Q3.47363 -0.5 4.10341 -0.227419Q4.71922 0.0391124 5.16969 0.528602Q5.62052 1.01847 5.83814 1.65834Q6.06102 2.31366 6.00745 3.03694L6.00745 3.03697ZM5.01018 2.96306Q5.04871 2.44287 4.8914 1.98033Q4.74175 1.54032 4.43387 1.20577Q4.12717 0.87251 3.70621 0.69031Q3.2665 0.5 2.75881 0.5Q2.24813 0.5 1.80868 0.687093Q1.38749 0.86641 1.08253 1.19539Q0.430078 1.89921 0.507494 2.96369Q0.545544 3.4863 0.754402 3.96646Q0.954443 4.42635 1.28106 4.78093Q1.5996 5.12674 1.98463 5.31398Q2.36715 5.5 2.75881 5.5Q3.15036 5.5 3.53256 5.314Q3.91724 5.12679 4.23564 4.78093Q4.56207 4.42633 4.76235 3.96621Q4.97141 3.48593 5.01018 2.96303L5.01018 2.96306Z" fill-rule="nonzero" transform="matrix(1 0 0 1 5.24119 1.5)" fill="rgb(102, 102, 102)"/>
		<path d="M6.00008 0.5Q5.03711 0.5 4.12614 0.759485Q3.20012 1.02326 2.45498 1.51995Q1.68276 2.03469 1.19127 2.74466Q0.669648 3.49814 0.503388 4.41999Q0.492014 4.48304 0.511279 4.51119Q0.503622 4.5 0.500076 4.5L11.5001 4.5Q11.4968 4.5 11.4892 4.5111Q11.5084 4.483 11.4971 4.42002Q11.3307 3.49817 10.809 2.74468Q10.3175 2.0347 9.54522 1.51995Q8.80005 1.02326 7.87402 0.759485Q6.96304 0.5 6.00008 0.5L6.00008 0.5ZM6.00008 -0.5Q7.10268 -0.5 8.14796 -0.202259Q9.22448 0.10438 10.0999 0.687858Q11.031 1.30849 11.6312 2.17544Q12.2763 3.1072 12.4812 4.24248Q12.5654 4.70936 12.3143 5.07609Q12.024 5.5 11.5001 5.5L0.500076 5.5Q-0.0237364 5.5 -0.31394 5.076Q-0.564942 4.70927 -0.480735 4.24251Q-0.275986 3.10724 0.369062 2.17546Q0.969239 1.3085 1.90033 0.687863Q2.77568 0.104382 3.85219 -0.202259Q4.89746 -0.5 6.00008 -0.5L6.00008 -0.5Z" fill-rule="nonzero" transform="matrix(1 0 0 1 1.99992 9.5)" fill="rgb(102, 102, 102)"/>
	</g>
</svg>
