<?xml version="1.0" encoding="utf-8" ?>
<svg xmlns="http://www.w3.org/2000/svg" xmlns:xlink="http://www.w3.org/1999/xlink" width="20" height="20" viewBox="0 0 20 20">
	<defs>
		<clipPath id="clipPath0145409511">
			<path d="M0 0L20 0L20 20L0 20L0 0Z" fill-rule="nonzero" transform="matrix(1 0 0 1 0 0)"/>
		</clipPath>
	</defs>
	<g clip-path="url(#clipPath0145409511)">
		<defs>
			<clipPath id="clipPath2655771554">
				<path d="M0 0L20 0L20 20L0 20L0 0Z" fill-rule="nonzero" transform="matrix(1 0 0 1 -0 -0)"/>
			</clipPath>
		</defs>
		<g clip-path="url(#clipPath2655771554)">
			<path d="M8.125 0.625Q6.5988 0.625 5.20595 1.21415Q3.86014 1.78341 2.82178 2.82178Q1.78341 3.86014 1.21415 5.20595Q0.625 6.5988 0.625 8.125Q0.625 9.6512 1.21415 11.0441Q1.78341 12.3899 2.82178 13.4282Q3.86014 14.4666 5.20595 15.0358Q6.5988 15.625 8.125 15.625Q9.6512 15.625 11.0441 15.0358Q12.3899 14.4666 13.4282 13.4282Q14.4666 12.3899 15.0358 11.0441Q15.625 9.6512 15.625 8.125Q15.625 6.5988 15.0358 5.20595Q14.4666 3.86014 13.4282 2.82178Q12.3899 1.78341 11.0441 1.21415Q9.6512 0.625 8.125 0.625L8.125 0.625ZM8.125 -0.625Q9.9047 -0.625 11.531 0.0629077Q13.1014 0.72714 14.3121 1.93789Q15.5229 3.14865 16.1871 4.71899Q16.875 6.34531 16.875 8.125Q16.875 9.9047 16.1871 11.531Q15.5229 13.1014 14.3121 14.3121Q13.1013 15.5229 11.531 16.1871Q9.90469 16.875 8.125 16.875Q6.3453 16.875 4.71899 16.1871Q3.14864 15.5229 1.93789 14.3121Q0.727139 13.1014 0.062908 11.531Q-0.625 9.90469 -0.625 8.125Q-0.625 6.34531 0.0629077 4.71899Q0.72714 3.14865 1.93789 1.93789Q3.14865 0.72714 4.71899 0.062908Q6.34531 -0.625 8.125 -0.625L8.125 -0.625Z" fill-rule="nonzero" transform="matrix(1 0 0 1 1.875 1.875)" fill="rgb(255, 255, 255)"/>
			<path d="M4.40117 0.625Q3.78002 0.625 3.14466 1.12841Q2.4577 1.67269 1.89632 2.68333Q1.30658 3.745 0.976138 5.10957Q0.625 6.55958 0.625 8.125Q0.625 9.69042 0.976138 11.1404Q1.30658 12.505 1.89632 13.5667Q2.4577 14.5773 3.14466 15.1216Q3.78002 15.625 4.40117 15.625Q5.02233 15.625 5.65768 15.1216Q6.34465 14.5773 6.90603 13.5667Q7.49576 12.505 7.82621 11.1404Q8.17734 9.69042 8.17734 8.125Q8.17734 6.55958 7.82621 5.10957Q7.49576 3.745 6.90602 2.68333Q6.34464 1.67269 5.65768 1.12841Q5.02232 0.625 4.40117 0.625L4.40117 0.625ZM4.40117 -0.625Q5.4575 -0.625 6.43395 0.148657Q7.31632 0.847769 7.99876 2.07634Q8.67077 3.28613 9.04109 4.81537Q9.42734 6.41039 9.42734 8.125Q9.42734 9.83961 9.04109 11.4346Q8.67077 12.9639 7.99876 14.1737Q7.31632 15.4022 6.43395 16.1013Q5.4575 16.875 4.40117 16.875Q3.34484 16.875 2.36839 16.1013Q1.48602 15.4022 0.803584 14.1737Q0.131575 12.9639 -0.238748 11.4346Q-0.625 9.83962 -0.625 8.125Q-0.625 6.41039 -0.238747 4.81537Q0.131576 3.28613 0.803584 2.07634Q1.48602 0.847769 2.36839 0.148657Q3.34484 -0.625 4.40117 -0.625L4.40117 -0.625Z" fill-rule="nonzero" transform="matrix(1 0 0 1 5.59883 1.875)" fill="rgb(255, 255, 255)"/>
			<path d="M-0.361822 0.509617C-0.643273 0.30979 -0.709444 -0.0803714 -0.509616 -0.361823C-0.309789 -0.643274 0.0803719 -0.709444 0.361823 -0.509617Q1.42399 0.24451 2.69235 0.648694Q4.00807 1.06797 5.4168 1.06797Q6.82553 1.06797 8.14124 0.648694Q9.4096 0.244511 10.4718 -0.509617C10.7532 -0.709444 11.1434 -0.643274 11.3432 -0.361823C11.543 -0.0803715 11.4769 0.309789 11.1954 0.509617Q9.97456 1.37641 8.52077 1.83968Q7.01988 2.31797 5.4168 2.31797Q3.81372 2.31797 2.31282 1.83968Q0.859032 1.37641 -0.361822 0.509617ZM8.14124 10.1849Q9.40961 10.5891 10.4718 11.3432C10.7532 11.543 11.1434 11.4769 11.3432 11.1954C11.543 10.914 11.4769 10.5238 11.1954 10.324Q9.97457 9.45718 8.52077 8.99391Q7.01987 8.51562 5.4168 8.51562Q3.81372 8.51562 2.31282 8.99391Q0.859028 9.45718 -0.361823 10.324C-0.643274 10.5238 -0.709444 10.914 -0.509617 11.1954C-0.309789 11.4769 0.0803714 11.543 0.361823 11.3432Q1.42399 10.5891 2.69235 10.1849Q4.00807 9.76562 5.4168 9.76562Q6.82552 9.76562 8.14124 10.1849Z" fill-rule="evenodd" transform="matrix(1 0 0 1 4.5832 4.5832)" fill="rgb(255, 255, 255)"/>
			<path d="M8.75 7.5L8.75 0L7.5 0L7.5 7.5L0 7.5L0 8.75L7.5 8.75L7.5 16.25L8.75 16.25L8.75 8.75L16.25 8.75L16.25 7.5L8.75 7.5Z" fill-rule="evenodd" transform="matrix(1 0 0 1 1.875 1.875)" fill="rgb(255, 255, 255)"/>
		</g>
	</g>
</svg>
