<?xml version="1.0" encoding="utf-8" ?>
<svg xmlns="http://www.w3.org/2000/svg" xmlns:xlink="http://www.w3.org/1999/xlink" width="20" height="20" viewBox="0 0 20 20">
	<defs>
		<clipPath id="clipPath3306820550">
			<path d="M0 0L20 0L20 20L0 20L0 0Z" fill-rule="nonzero" transform="matrix(1 0 0 1 -0 -0)"/>
		</clipPath>
	</defs>
	<g clip-path="url(#clipPath3306820550)">
		<path d="M8.75 0C3.91797 0 0 4.01953 0 8.97266C0 12.9375 2.50781 16.2969 5.98438 17.4844C6.00876 17.4897 6.03335 17.4936 6.05817 17.4962C6.08298 17.4988 6.10786 17.5001 6.13281 17.5C6.45703 17.5 6.58203 17.2617 6.58203 17.0547C6.58203 16.8398 6.57422 16.2773 6.57031 15.5273C6.42559 15.5613 6.27944 15.5871 6.13185 15.6047C5.98425 15.6223 5.83614 15.6317 5.6875 15.6328C4.00391 15.6328 3.62109 14.3242 3.62109 14.3242C3.22266 13.2891 2.64844 13.0117 2.64844 13.0117C1.88672 12.4766 2.64453 12.4609 2.70312 12.4609L2.70703 12.4609C3.58594 12.5391 4.04687 13.3906 4.04687 13.3906C4.48437 14.1562 5.07031 14.3711 5.59375 14.3711C5.7668 14.3676 5.93759 14.3462 6.10611 14.3067C6.27464 14.2672 6.43718 14.2105 6.59375 14.1367C6.67187 13.5586 6.89844 13.1641 7.14844 12.9375C5.20703 12.7109 3.16406 11.9414 3.16406 8.50391C3.16406 7.52344 3.50391 6.72266 4.0625 6.09766C3.97266 5.87109 3.67187 4.95703 4.14844 3.72266C4.1804 3.71501 4.21273 3.70955 4.24543 3.70628C4.27813 3.70301 4.31091 3.70196 4.34375 3.70312C4.66016 3.70312 5.375 3.82422 6.55469 4.64453C7.27139 4.44401 8.00186 4.34374 8.74609 4.34374C9.49032 4.34374 10.2208 4.44401 10.9375 4.64453C12.1172 3.82422 12.832 3.70312 13.1484 3.70312C13.1813 3.70196 13.2141 3.70301 13.2468 3.70628C13.2795 3.70955 13.3118 3.71501 13.3438 3.72266C13.8203 4.95703 13.5195 5.87109 13.4297 6.09766C13.9883 6.72656 14.3281 7.52734 14.3281 8.50391C14.3281 11.9492 12.2813 12.707 10.332 12.9297C10.6445 13.207 10.9258 13.7539 10.9258 14.5898C10.9258 15.7891 10.9141 16.7578 10.9141 17.0508C10.9141 17.2617 11.0352 17.5 11.3594 17.5C11.3856 17.5001 11.4118 17.4989 11.4379 17.4963C11.464 17.4936 11.4899 17.4897 11.5156 17.4844C14.9961 16.2969 17.5 12.9336 17.5 8.97266C17.5 4.01953 13.582 0 8.75 0Z" fill-rule="nonzero" transform="matrix(1 0 0 1 1.25 1.25)" fill="rgb(26, 86, 219)"/>
	</g>
</svg>
