<?xml version="1.0" encoding="utf-8" ?>
<svg xmlns="http://www.w3.org/2000/svg" xmlns:xlink="http://www.w3.org/1999/xlink" width="24" height="24" viewBox="0 0 24 24">
	<defs>
		<clipPath id="clipPath1428219249">
			<path d="M0 0L24 0L24 24L0 24L0 0Z" fill-rule="nonzero" transform="matrix(1 0 0 1 -0 -0)"/>
		</clipPath>
	</defs>
	<g clip-path="url(#clipPath1428219249)">
		<path d="M23.8428 3.97453C23.8428 1.86516 22.2912 0.168281 20.374 0.168281C17.7772 0.046875 15.1287 0 12.4222 0L11.5784 0C8.87841 0 6.22528 0.046875 3.62841 0.16875C1.71591 0.16875 0.164348 1.875 0.164348 3.98437C0.0471601 5.65266 -0.00252745 7.32141 0.000285051 8.99016C-0.00440245 10.6589 0.0487225 12.3292 0.15966 14.0011C0.15966 16.1105 1.71122 17.8214 3.62372 17.8214C6.35185 17.948 9.15029 18.0042 11.9956 17.9995C14.8456 18.0089 17.6362 17.9495 20.3675 17.8214C22.2847 17.8214 23.8362 16.1105 23.8362 14.0011C23.9487 12.3277 24.0003 10.6589 23.9956 8.98547C24.0062 7.31672 23.9553 5.64641 23.8428 3.97453ZM9.70341 13.5886L9.70341 4.37766L16.5003 8.98078L9.70341 13.5886Z" fill-rule="nonzero" transform="matrix(1 0 0 1 -0.000285051 3)" fill="rgb(156, 163, 175)"/>
	</g>
</svg>
